<svg width="543" height="316" viewBox="0 0 543 316" fill="none" xmlns="http://www.w3.org/2000/svg">
<g clip-path="url(#clip0_2054_19487)">
<path d="M543 14.8784L516.85 67.0842L493.053 114.594L289.744 176.258L323.262 119.597L278.703 127.98L273.556 108.471L269.4 92.7372L394.455 42.0675L373.1 80.3167C373.1 80.3167 373.121 80.2947 373.187 80.2728L543 14.8784Z" fill="url(#paint0_linear_2054_19487)"/>
<path opacity="0.2" d="M341.539 86.9438L323.284 119.575L278.703 127.958L273.556 108.449L341.539 86.9438Z" fill="#F15A24"/>
<path d="M130.84 113.387L110.848 122.011L52.9606 147.028L45.1089 141.52L130.818 74.3916L152.108 57.7139C152.108 57.7139 156.111 94.1636 130.84 113.387Z" fill="url(#paint1_linear_2054_19487)"/>
<path opacity="0.5" d="M130.84 113.387L110.848 122.011L104.382 120.321C129.498 99.2108 131.412 81.7211 130.818 74.3916L152.108 57.7139C152.108 57.7139 156.111 94.1636 130.84 113.387Z" fill="#F15A24"/>
<path d="M299.927 205.619C299.927 205.619 306.371 216.789 322.91 215.692C326.341 215.473 329.772 215.977 332.983 217.184L379.236 234.718C383.612 236.386 387.395 239.282 390.144 243.057L408.003 267.7H402.219C395.973 267.7 389.969 265.308 385.438 261.007L380.269 256.092C377.234 253.195 373.517 251.132 369.448 250.057L289.744 229.122L299.927 205.619Z" fill="url(#paint2_linear_2054_19487)"/>
<path d="M92.901 207.485L54.2582 222.67C48.21 225.04 44.2291 230.877 44.2291 237.351C44.2291 243.232 47.5062 248.631 52.7407 251.352L135.745 294.385C135.745 294.385 136.844 309.592 154.241 312.796L148.391 290.215C146.807 284.137 143.046 278.848 137.79 275.359L94.8364 246.919L92.901 207.485Z" fill="url(#paint3_linear_2054_19487)"/>
<path d="M381.215 269.171C376.706 263.465 370.79 259.01 364.038 256.289L317.456 237.439C316.928 237.263 316.422 237.044 315.938 236.824C315.938 236.824 315.85 236.802 315.696 236.715C310.176 234.125 306.195 229.012 305.095 222.934L299.553 192.124C299.553 192.124 299.553 192.124 299.575 192.146C299.575 192.146 299.575 192.146 299.597 192.146C300.081 192.475 308.372 198.136 316.158 193.726C324.186 189.183 324.45 182.512 324.45 182.512C324.45 182.512 331.949 184.377 337.03 178.518C342.11 172.637 337.294 168.38 337.294 168.38C337.294 168.38 360.035 162.784 345.322 131.008L331.532 139.852L309.802 153.787C300.609 159.69 288.996 160.194 279.253 155.235C259.788 145.36 221.783 132.676 172.232 148.213C113.091 166.756 92.769 148.893 92.769 148.893C92.769 148.893 81.2883 141.278 71.0613 129.955L45.1968 141.52C35.2777 145.931 27.36 153.765 22.8733 163.574L7.65375 171.079C5.85028 171.979 5.63034 174.436 7.25787 175.643L18.0347 183.587C22.6094 186.967 28.1518 188.788 33.8481 188.788H63.6935C66.9705 188.788 70.2255 189.468 73.2167 190.763C77.8133 192.782 83.8616 196.425 85.6211 202.152C88.5682 211.764 91.9112 233.247 91.9112 233.247L71.6331 250.935L24.2369 292.256C24.2369 292.256 0.6158 295.987 0.0219727 316.022L37.9609 305.906C42.1837 304.786 46.1646 302.833 49.6395 300.2L121.009 246.129C121.009 246.129 126.551 247.16 135.766 246.875C152.482 246.37 181.293 241.521 210.985 218.281C210.985 218.281 212.832 220.937 216.351 224.887C228.975 239.172 262.999 270.619 308.658 257.255L363.664 277.839C368.283 279.572 372.308 282.535 375.321 286.441L378.642 290.742C383.26 296.733 390.408 300.244 397.996 300.244H405.782L381.215 269.171Z" fill="url(#paint4_linear_2054_19487)"/>
<path d="M405.76 300.244H397.974C390.408 300.244 383.239 296.733 378.62 290.742L375.299 286.441C372.286 282.535 368.261 279.572 363.642 277.839L313.277 258.988L308.636 257.255C262.978 270.619 228.975 239.194 216.329 224.887C212.832 220.915 210.963 218.281 210.963 218.281C209.291 219.576 207.642 220.827 205.992 222.012C203.441 223.833 200.912 225.545 198.404 227.103C189.365 232.765 180.589 236.846 172.342 239.787C169.769 240.709 167.239 241.521 164.754 242.223C153.295 245.514 143.288 246.634 135.745 246.853C126.529 247.138 120.987 246.107 120.987 246.107L49.6396 300.2C46.1426 302.833 42.1837 304.786 37.961 305.906L0 316C0.593827 295.987 24.215 292.234 24.215 292.234L71.6112 250.913C78.1653 250.32 91.7573 247.994 107.549 239.085C139.483 221.09 146.411 197.061 164.754 181.261C167.063 179.264 169.571 177.399 172.342 175.687C177.378 172.571 183.251 170.004 190.421 168.138C193.17 167.436 195.831 166.822 198.404 166.339C201.022 165.834 203.551 165.439 205.992 165.132C233.968 161.774 251.299 171.671 262.076 183.434C262.076 183.434 248.44 178.035 231.967 182.841C231.967 182.841 252.838 184.641 274.7 206.673C295.176 227.279 313.409 235.705 315.652 236.693C315.806 236.759 315.872 236.802 315.872 236.802C316.378 237.022 316.884 237.241 317.412 237.417L363.994 256.267C370.746 258.988 376.662 263.443 381.171 269.149L405.76 300.244Z" fill="#5BA8D3"/>
<path d="M205.992 152.36V222.012C203.441 223.833 200.912 225.545 198.404 227.103C189.365 232.765 180.59 236.846 172.342 239.787C169.769 240.709 167.239 241.521 164.754 242.223V152.36H205.992Z" fill="url(#paint5_linear_2054_19487)"/>
<path d="M198.404 152.36V227.125C189.365 232.787 180.59 236.868 172.342 239.809V152.36H198.404Z" fill="url(#paint6_linear_2054_19487)"/>
<path d="M198.404 184.026L178.764 189.929V182.973L198.404 177.07V184.026Z" fill="url(#paint7_linear_2054_19487)"/>
<path d="M198.404 195.854L178.764 201.757V194.801L198.404 188.898V195.854Z" fill="url(#paint8_linear_2054_19487)"/>
<path d="M198.404 207.66L178.764 213.563V206.607L198.404 200.704V207.66Z" fill="url(#paint9_linear_2054_19487)"/>
<path d="M224.335 204.478C224.335 204.478 224.335 215.253 216.307 224.909C212.81 220.937 210.941 218.303 210.941 218.303C210.941 218.303 221.542 208.67 224.335 204.478Z" fill="#5A8AB7"/>
<path d="M135.745 246.875C126.529 247.16 120.987 246.129 120.987 246.129L135.085 234.981C135.019 235.244 132.621 242.179 135.745 246.875Z" fill="#5A8AB7"/>
<path d="M316.752 253.722C316.752 253.722 315.63 256.421 313.255 258.988L308.614 257.255C308.614 257.277 314.443 254.841 316.752 253.722Z" fill="#5A8AB7"/>
<path d="M46.7584 164.013L47.5722 162.85C47.9021 162.389 47.5722 161.752 47.0004 161.752C44.2292 161.709 42.4037 162.806 41.37 163.706C40.9741 164.013 40.6222 164.386 40.3363 164.825C39.9404 165.461 39.6985 166.229 39.6985 167.041C39.6985 169.345 41.5679 171.211 43.8773 171.211C46.1866 171.211 48.0561 169.345 48.0561 167.041C48.0561 165.856 47.5502 164.781 46.7584 164.013Z" fill="url(#paint10_linear_2054_19487)"/>
<path d="M42.7777 167.019C43.385 167.019 43.8773 166.528 43.8773 165.922C43.8773 165.316 43.385 164.825 42.7777 164.825C42.1703 164.825 41.678 165.316 41.678 165.922C41.678 166.528 42.1703 167.019 42.7777 167.019Z" fill="white"/>
<path d="M337.25 168.38C337.25 168.38 342.066 172.659 336.986 178.518C331.905 184.377 324.406 182.512 324.406 182.512C324.406 182.512 324.142 189.183 316.114 193.726C308.328 198.136 300.015 192.475 299.553 192.146H299.531C299.531 192.124 299.509 192.124 299.509 192.124L298.167 180.91C298.167 180.91 318.775 186.111 318.093 167.019C318.093 167.019 341.891 161.226 331.466 139.83L345.256 130.986C359.991 162.762 337.25 168.38 337.25 168.38Z" fill="#5BA8D3"/>
<path d="M252.992 143.78L155.737 169.674C141.397 173.493 126.683 164.978 122.856 150.693L122.35 148.805C118.523 134.498 127.057 119.817 141.375 115.998L238.631 90.1259C241.71 89.3139 244.855 91.1353 245.669 94.1856L257.039 136.758C257.897 139.83 256.071 142.968 252.992 143.78Z" fill="url(#paint11_linear_2054_19487)"/>
<path d="M228.404 141.213L155.539 160.611L145.73 123.942L218.594 104.543C228.733 101.844 239.158 107.857 241.864 117.995C244.569 128.112 238.543 138.513 228.404 141.213Z" fill="url(#paint12_linear_2054_19487)"/>
<path d="M150.634 161.248C161.141 161.248 169.659 152.749 169.659 142.266C169.659 131.782 161.141 123.284 150.634 123.284C140.127 123.284 131.61 131.782 131.61 142.266C131.61 152.749 140.127 161.248 150.634 161.248Z" fill="#FFBA00"/>
<path d="M149.161 134.476L143.662 144.416C143.244 145.184 143.948 146.062 144.784 145.843L149.666 144.548L149.71 149.749C149.71 150.758 151.03 151.109 151.558 150.254L157.584 140.093C158.046 139.325 157.342 138.404 156.484 138.645L151.228 140.049L151.052 134.936C150.964 133.905 149.644 133.598 149.161 134.476Z" fill="#F7F7F7"/>
<path d="M268.806 130.46L256.291 133.795L246.482 97.1261L258.997 93.8125L268.806 130.46Z" fill="url(#paint13_linear_2054_19487)"/>
<path d="M269.554 81.8747L283.893 135.551L275.536 136.209C274.062 136.319 272.655 136.099 271.335 135.617C270.521 135.309 269.729 134.893 269.026 134.388C267.53 133.291 266.342 131.776 265.661 129.977C265.529 129.67 265.441 129.341 265.353 129.011L256.731 96.753C256.709 96.7091 256.709 96.6653 256.687 96.5994C256.533 96.0069 256.445 95.4144 256.401 94.8219C256.291 92.803 256.797 90.8061 257.853 89.1383C258.403 88.2386 259.107 87.4047 259.964 86.7244C260.558 86.2197 261.24 85.8028 261.966 85.4516L269.554 81.8747Z" fill="url(#paint14_linear_2054_19487)"/>
<path d="M187.627 147.511L181.623 149.113L177.51 133.708L183.515 132.106L187.627 147.511Z" fill="url(#paint15_linear_2054_19487)"/>
<path d="M189.507 118.852L183.493 120.452L190.516 146.722L196.529 145.122L189.507 118.852Z" fill="#5BA8D3"/>
<path d="M205.442 142.771L199.438 144.372L193.544 122.34L199.57 120.738L205.442 142.771Z" fill="url(#paint16_linear_2054_19487)"/>
<path d="M209.416 121.871L203.402 123.471L208.35 141.981L214.364 140.381L209.416 121.871Z" fill="#5BA8D3"/>
<path d="M223.279 138.031L217.253 139.632L210.237 113.343L216.241 111.741L223.279 138.031Z" fill="url(#paint17_linear_2054_19487)"/>
<path d="M216.945 86.505L158.244 102.129C153.405 103.424 150.524 108.384 151.8 113.233L228.052 92.9347C226.754 88.085 221.784 85.2103 216.945 86.505Z" fill="#FFBA00"/>
<path d="M141.133 134.739C163.962 120.431 178.368 82.4672 178.588 81.8747L153.032 93.2858L70.9954 129.933C81.2224 141.234 92.7031 148.871 92.7031 148.871C92.7031 148.871 97.4537 148.498 104.382 147.269C114.719 145.47 129.872 141.783 141.133 134.739Z" fill="url(#paint18_linear_2054_19487)"/>
<path opacity="0.5" d="M178.588 81.8747C178.368 82.4672 163.962 120.409 141.133 134.717C129.872 141.761 114.719 145.448 104.382 147.269C140.011 137.701 150.524 104.148 153.032 93.2858L178.588 81.8747Z" fill="#F15A24"/>
<path opacity="0.2" d="M543 14.8784L516.85 67.0842L353.173 122.011L373.099 80.2728C373.099 80.2728 373.121 80.2509 373.187 80.2289L543 14.8784Z" fill="#F15A24"/>
<path d="M362.279 170.464L360.937 174.7L459.116 157.276L465.539 142.463L362.279 170.464Z" fill="url(#paint19_linear_2054_19487)"/>
<path d="M416.031 45.6883L415.547 50.0772L508.36 13.6494L515.552 0L416.031 45.6883Z" fill="url(#paint20_linear_2054_19487)"/>
<path d="M286.973 68.5545L286.489 72.9653L379.302 36.5156L386.494 22.8881L286.973 68.5545Z" fill="url(#paint21_linear_2054_19487)"/>
<path d="M402.285 184.224L361.927 185.409L360.937 188.525L396.875 190.39C398.722 188.371 400.526 186.308 402.285 184.224Z" fill="url(#paint22_linear_2054_19487)"/>
<path d="M332.873 27.4086L299.179 47.9267L298.827 51.2403L331.136 35.4183C331.774 32.7631 332.367 30.0859 332.873 27.4086Z" fill="url(#paint23_linear_2054_19487)"/>
</g>
<defs>
<linearGradient id="paint0_linear_2054_19487" x1="239.902" y1="151.856" x2="628.193" y2="11.1472" gradientUnits="userSpaceOnUse">
<stop stop-color="#FFBA00"/>
<stop offset="1" stop-color="#FF6E56"/>
</linearGradient>
<linearGradient id="paint1_linear_2054_19487" x1="41.8967" y1="172.089" x2="194.876" y2="23.9856" gradientUnits="userSpaceOnUse">
<stop stop-color="#FF2A64"/>
<stop offset="0.0308184" stop-color="#FF3462"/>
<stop offset="0.1688" stop-color="#FF595A"/>
<stop offset="0.3129" stop-color="#FF7854"/>
<stop offset="0.4626" stop-color="#FF904E"/>
<stop offset="0.6203" stop-color="#FFA24B"/>
<stop offset="0.7913" stop-color="#FFAC49"/>
<stop offset="1" stop-color="#FFAF48"/>
</linearGradient>
<linearGradient id="paint2_linear_2054_19487" x1="268.13" y1="192.552" x2="413.245" y2="278.531" gradientUnits="userSpaceOnUse">
<stop stop-color="#223C6A"/>
<stop offset="1" stop-color="#5A8AB7"/>
</linearGradient>
<linearGradient id="paint3_linear_2054_19487" x1="56.3051" y1="208.325" x2="157.948" y2="347.094" gradientUnits="userSpaceOnUse">
<stop stop-color="#223C6A"/>
<stop offset="1" stop-color="#5A8AB7"/>
</linearGradient>
<linearGradient id="paint4_linear_2054_19487" x1="202.875" y1="328.212" x2="202.875" y2="1.06235" gradientUnits="userSpaceOnUse">
<stop stop-color="#FF2A64"/>
<stop offset="0.0308184" stop-color="#FF3462"/>
<stop offset="0.1688" stop-color="#FF595A"/>
<stop offset="0.3129" stop-color="#FF7854"/>
<stop offset="0.4626" stop-color="#FF904E"/>
<stop offset="0.6203" stop-color="#FFA24B"/>
<stop offset="0.7913" stop-color="#FFAC49"/>
<stop offset="1" stop-color="#FFAF48"/>
</linearGradient>
<linearGradient id="paint5_linear_2054_19487" x1="185.382" y1="249.459" x2="185.382" y2="143.977" gradientUnits="userSpaceOnUse">
<stop stop-color="#002649"/>
<stop offset="0.3213" stop-color="#042A4F"/>
<stop offset="0.7475" stop-color="#0F3460"/>
<stop offset="1" stop-color="#183D6D"/>
</linearGradient>
<linearGradient id="paint6_linear_2054_19487" x1="185.382" y1="265.465" x2="185.382" y2="69.2057" gradientUnits="userSpaceOnUse">
<stop stop-color="#223C6A"/>
<stop offset="1" stop-color="#5A8AB7"/>
</linearGradient>
<linearGradient id="paint7_linear_2054_19487" x1="233.143" y1="174.717" x2="164.125" y2="188.391" gradientUnits="userSpaceOnUse">
<stop stop-color="#FF2A64"/>
<stop offset="0.0308184" stop-color="#FF3462"/>
<stop offset="0.1688" stop-color="#FF595A"/>
<stop offset="0.3129" stop-color="#FF7854"/>
<stop offset="0.4626" stop-color="#FF904E"/>
<stop offset="0.6203" stop-color="#FFA24B"/>
<stop offset="0.7913" stop-color="#FFAC49"/>
<stop offset="1" stop-color="#FFAF48"/>
</linearGradient>
<linearGradient id="paint8_linear_2054_19487" x1="235.396" y1="186.086" x2="166.377" y2="199.76" gradientUnits="userSpaceOnUse">
<stop stop-color="#FF2A64"/>
<stop offset="0.0308184" stop-color="#FF3462"/>
<stop offset="0.1688" stop-color="#FF595A"/>
<stop offset="0.3129" stop-color="#FF7854"/>
<stop offset="0.4626" stop-color="#FF904E"/>
<stop offset="0.6203" stop-color="#FFA24B"/>
<stop offset="0.7913" stop-color="#FFAC49"/>
<stop offset="1" stop-color="#FFAF48"/>
</linearGradient>
<linearGradient id="paint9_linear_2054_19487" x1="237.648" y1="197.455" x2="168.63" y2="211.128" gradientUnits="userSpaceOnUse">
<stop stop-color="#FF2A64"/>
<stop offset="0.0308184" stop-color="#FF3462"/>
<stop offset="0.1688" stop-color="#FF595A"/>
<stop offset="0.3129" stop-color="#FF7854"/>
<stop offset="0.4626" stop-color="#FF904E"/>
<stop offset="0.6203" stop-color="#FFA24B"/>
<stop offset="0.7913" stop-color="#FFAC49"/>
<stop offset="1" stop-color="#FFAF48"/>
</linearGradient>
<linearGradient id="paint10_linear_2054_19487" x1="41.783" y1="174.557" x2="47.1786" y2="155.13" gradientUnits="userSpaceOnUse">
<stop stop-color="#223C6A"/>
<stop offset="1" stop-color="#5A8AB7"/>
</linearGradient>
<linearGradient id="paint11_linear_2054_19487" x1="96.347" y1="163.647" x2="343.658" y2="80.4224" gradientUnits="userSpaceOnUse">
<stop stop-color="#223C6A"/>
<stop offset="1" stop-color="#5A8AB7"/>
</linearGradient>
<linearGradient id="paint12_linear_2054_19487" x1="203.072" y1="152.872" x2="185.218" y2="97.0549" gradientUnits="userSpaceOnUse">
<stop stop-color="#002649"/>
<stop offset="0.3213" stop-color="#042A4F"/>
<stop offset="0.7475" stop-color="#0F3460"/>
<stop offset="1" stop-color="#183D6D"/>
</linearGradient>
<linearGradient id="paint13_linear_2054_19487" x1="246.488" y1="113.801" x2="268.798" y2="113.801" gradientUnits="userSpaceOnUse">
<stop stop-color="#002649"/>
<stop offset="0.3213" stop-color="#042A4F"/>
<stop offset="0.7475" stop-color="#0F3460"/>
<stop offset="1" stop-color="#183D6D"/>
</linearGradient>
<linearGradient id="paint14_linear_2054_19487" x1="256.392" y1="109.068" x2="283.894" y2="109.068" gradientUnits="userSpaceOnUse">
<stop stop-color="#223C6A"/>
<stop offset="1" stop-color="#5A8AB7"/>
</linearGradient>
<linearGradient id="paint15_linear_2054_19487" x1="189.435" y1="166.705" x2="175.581" y2="113.832" gradientUnits="userSpaceOnUse">
<stop stop-color="#FF2A64"/>
<stop offset="0.0308184" stop-color="#FF3462"/>
<stop offset="0.1688" stop-color="#FF595A"/>
<stop offset="0.3129" stop-color="#FF7854"/>
<stop offset="0.4626" stop-color="#FF904E"/>
<stop offset="0.6203" stop-color="#FFA24B"/>
<stop offset="0.7913" stop-color="#FFAC49"/>
<stop offset="1" stop-color="#FFAF48"/>
</linearGradient>
<linearGradient id="paint16_linear_2054_19487" x1="207.258" y1="162.035" x2="193.404" y2="109.162" gradientUnits="userSpaceOnUse">
<stop stop-color="#FF2A64"/>
<stop offset="0.0308184" stop-color="#FF3462"/>
<stop offset="0.1688" stop-color="#FF595A"/>
<stop offset="0.3129" stop-color="#FF7854"/>
<stop offset="0.4626" stop-color="#FF904E"/>
<stop offset="0.6203" stop-color="#FFA24B"/>
<stop offset="0.7913" stop-color="#FFAC49"/>
<stop offset="1" stop-color="#FFAF48"/>
</linearGradient>
<linearGradient id="paint17_linear_2054_19487" x1="225.086" y1="157.363" x2="211.231" y2="104.49" gradientUnits="userSpaceOnUse">
<stop stop-color="#FF2A64"/>
<stop offset="0.0308184" stop-color="#FF3462"/>
<stop offset="0.1688" stop-color="#FF595A"/>
<stop offset="0.3129" stop-color="#FF7854"/>
<stop offset="0.4626" stop-color="#FF904E"/>
<stop offset="0.6203" stop-color="#FFA24B"/>
<stop offset="0.7913" stop-color="#FFAC49"/>
<stop offset="1" stop-color="#FFAF48"/>
</linearGradient>
<linearGradient id="paint18_linear_2054_19487" x1="124.793" y1="328.212" x2="124.793" y2="1.06238" gradientUnits="userSpaceOnUse">
<stop stop-color="#FF2A64"/>
<stop offset="0.0308184" stop-color="#FF3462"/>
<stop offset="0.1688" stop-color="#FF595A"/>
<stop offset="0.3129" stop-color="#FF7854"/>
<stop offset="0.4626" stop-color="#FF904E"/>
<stop offset="0.6203" stop-color="#FFA24B"/>
<stop offset="0.7913" stop-color="#FFAC49"/>
<stop offset="1" stop-color="#FFAF48"/>
</linearGradient>
<linearGradient id="paint19_linear_2054_19487" x1="612.849" y1="102.338" x2="208.458" y2="225.977" gradientUnits="userSpaceOnUse">
<stop stop-color="#FF2A64"/>
<stop offset="0.0308184" stop-color="#FF3462"/>
<stop offset="0.1688" stop-color="#FF595A"/>
<stop offset="0.3129" stop-color="#FF7854"/>
<stop offset="0.4626" stop-color="#FF904E"/>
<stop offset="0.6203" stop-color="#FFA24B"/>
<stop offset="0.7913" stop-color="#FFAC49"/>
<stop offset="1" stop-color="#FFAF48"/>
</linearGradient>
<linearGradient id="paint20_linear_2054_19487" x1="578.688" y1="-9.39417" x2="174.297" y2="114.246" gradientUnits="userSpaceOnUse">
<stop stop-color="#FF2A64"/>
<stop offset="0.0308184" stop-color="#FF3462"/>
<stop offset="0.1688" stop-color="#FF595A"/>
<stop offset="0.3129" stop-color="#FF7854"/>
<stop offset="0.4626" stop-color="#FF904E"/>
<stop offset="0.6203" stop-color="#FFA24B"/>
<stop offset="0.7913" stop-color="#FFAC49"/>
<stop offset="1" stop-color="#FFAF48"/>
</linearGradient>
<linearGradient id="paint21_linear_2054_19487" x1="574.099" y1="-24.4023" x2="169.708" y2="99.2373" gradientUnits="userSpaceOnUse">
<stop stop-color="#FF2A64"/>
<stop offset="0.0308184" stop-color="#FF3462"/>
<stop offset="0.1688" stop-color="#FF595A"/>
<stop offset="0.3129" stop-color="#FF7854"/>
<stop offset="0.4626" stop-color="#FF904E"/>
<stop offset="0.6203" stop-color="#FFA24B"/>
<stop offset="0.7913" stop-color="#FFAC49"/>
<stop offset="1" stop-color="#FFAF48"/>
</linearGradient>
<linearGradient id="paint22_linear_2054_19487" x1="616.905" y1="115.602" x2="212.514" y2="239.242" gradientUnits="userSpaceOnUse">
<stop stop-color="#FF2A64"/>
<stop offset="0.0308184" stop-color="#FF3462"/>
<stop offset="0.1688" stop-color="#FF595A"/>
<stop offset="0.3129" stop-color="#FF7854"/>
<stop offset="0.4626" stop-color="#FF904E"/>
<stop offset="0.6203" stop-color="#FFA24B"/>
<stop offset="0.7913" stop-color="#FFAC49"/>
<stop offset="1" stop-color="#FFAF48"/>
</linearGradient>
<linearGradient id="paint23_linear_2054_19487" x1="569.939" y1="-38.0096" x2="165.548" y2="85.63" gradientUnits="userSpaceOnUse">
<stop stop-color="#FF2A64"/>
<stop offset="0.0308184" stop-color="#FF3462"/>
<stop offset="0.1688" stop-color="#FF595A"/>
<stop offset="0.3129" stop-color="#FF7854"/>
<stop offset="0.4626" stop-color="#FF904E"/>
<stop offset="0.6203" stop-color="#FFA24B"/>
<stop offset="0.7913" stop-color="#FFAC49"/>
<stop offset="1" stop-color="#FFAF48"/>
</linearGradient>
<clipPath id="clip0_2054_19487">
<rect width="543" height="316" fill="white"/>
</clipPath>
</defs>
</svg>
